<svg xmlns="http://www.w3.org/2000/svg" xmlns:xlink="http://www.w3.org/1999/xlink" version="1.1" x="0px" y="0px" viewBox="0 0 48 50" enable-background="new 0 0 48 48" xml:space="preserve">
    <g>
        <path fill="#ffffff" d="M36.661,45.82c-6.752,0-12.245-5.467-12.245-12.187s5.493-12.186,12.245-12.186c0.767,0,1.515,0.079,2.242,0.214V9.601   c0-0.546-0.442-0.988-0.988-0.988h-1.376c-1.445-1.08-2.271-2.269-2.438-3.541c-0.18-1.365,0.427-2.537,0.785-3.095h1.322   c0.545,0,0.988-0.442,0.988-0.989S36.754,0,36.209,0H4.984C2.281,0,0.082,2.153,0.082,4.798v0.994c0,0.178,0.033,0.348,0.053,0.521   c-0.03,0.095-0.053,0.194-0.053,0.299v37.254c0,0.12,0.028,0.23,0.066,0.336c0.006,0.014,0.003,0.029,0.009,0.043   c0.032,0.079,0.458,1.063,1.483,2.004c0.03,0.03,0.051,0.069,0.081,0.099c0.31,0.299,0.67,0.528,1.042,0.727   c0.086,0.05,0.175,0.1,0.266,0.146c0.004,0.002,0.008,0.004,0.013,0.006C3.914,47.679,5.008,48,6.379,48   c0.326,0,0.667-0.019,1.025-0.058h30.511c0.546,0,0.988-0.442,0.988-0.989v-1.347C38.176,45.741,37.428,45.82,36.661,45.82z    M4.984,8.613c-0.144,0-0.282-0.021-0.42-0.041C4.027,8.481,3.108,8.167,2.448,7.169C2.207,6.76,2.059,6.295,2.059,5.792V4.798   c0-1.555,1.312-2.821,2.925-2.821h27.675c-0.377,0.868-0.688,2.017-0.521,3.324c0.148,1.186,0.656,2.293,1.51,3.312H4.984z"/>
        <path fill="#ffffff" d="M36.661,22.436c-6.207,0-11.257,5.024-11.257,11.198c0,6.175,5.05,11.198,11.257,11.198s11.257-5.023,11.257-11.198   C47.918,27.46,42.868,22.436,36.661,22.436z M43.676,31.366l-8.618,7.632c-0.182,0.16-0.415,0.248-0.655,0.248   c-0.028,0-0.057-0.001-0.085-0.004c-0.271-0.022-0.519-0.156-0.688-0.367l-4.101-5.14c-0.341-0.427-0.271-1.05,0.155-1.389   c0.428-0.342,1.05-0.271,1.39,0.155l3.452,4.326l7.838-6.942c0.408-0.36,1.032-0.323,1.396,0.085   C44.122,30.379,44.084,31.005,43.676,31.366z"/>
    </g>
</svg>