<svg width="95" height="95" xmlns="http://www.w3.org/2000/svg">
 <g>
  <title>Layer 1</title>
  <path id="svg_1" d="m47.5,0c-26.231001,0 -47.5,21.266001 -47.5,47.5c0,26.234001 21.268999,47.5 47.5,47.5s47.5,-21.265999 47.5,-47.5c0,-26.233999 -21.268997,-47.5 -47.5,-47.5zm10.428001,42.882c-0.455002,2.181999 -7.061001,14.236 -8.985001,18.311001c-1.097,2.333 -3.254002,5.568001 -2.781002,8.287003c0.375999,2.160995 2.610001,3.333 4.558002,3.803993c0.643997,0.155006 2.508999,0.364006 2.508999,1.311005c0,0.385002 -0.306,0.690002 -0.691002,0.699997c0,0.009003 -14.675999,0.009003 -14.675999,0.009003c-2.093998,0 -3.915001,-1.486 -4.179001,-3.564003c-0.301998,-2.339996 1.280003,-4.443001 2.236,-6.445c2.050003,-4.287998 4.381001,-8.446999 6.417,-12.746998c0.735001,-1.552002 1.415001,-3.125999 2.162003,-4.668999c0.746998,-1.535 1.669998,-3.277 1.055,-5.017002c-0.659,-1.855 -2.851002,-2.785999 -4.620003,-3.216999c-0.645,-0.153 -2.508999,-0.364002 -2.508999,-1.306c0,-0.388 0.307999,-0.694 0.693001,-0.702999c0,-0.009003 14.674,-0.009003 14.674,-0.009003c2.171001,0 4.128998,1.698002 4.243999,3.864002c0.027,0.460999 -0.014,0.924999 -0.106998,1.390999zm-3.359001,-9.612999c-3.748001,0 -6.785999,-3.041 -6.785999,-6.787001c0,-3.746 3.037998,-6.786001 6.785999,-6.786001c3.743,0 6.785999,3.041 6.785999,6.786001c0,3.746 -3.042999,6.787001 -6.785999,6.787001z" fill="#ffffff"/>
 </g>
</svg>
