<?xml version="1.0" encoding="utf-8"?>
<!-- Generator: Adobe Illustrator 19.0.0, SVG Export Plug-In . SVG Version: 6.00 Build 0)  -->
<svg version="1.1" xmlns="http://www.w3.org/2000/svg" xmlns:xlink="http://www.w3.org/1999/xlink" x="0px" y="0px"
	 viewBox="0 0 270 121" style="enable-background:new 0 0 270 121;" xml:space="preserve">
<style type="text/css">
	.st0{fill:#F2F2F2;}
	.st1{fill:#FFFFFF;}
	.st2{fill:#1BA1E2;}
</style>
<g id="Layer_1">
	<g id="XMLID_36_">
		<g id="XMLID_19_">
			<g id="XMLID_35_">
				<path id="XMLID_33_" class="st0" d="M182.7,117.8c1.4-1.4,2.8-2.8,3.1-4.6c0-0.3,0.1-0.5,0.1-0.8c0-1.8-1-3.6-3.2-5.8l-3.9-3.9
					c0,0,0,0,0,0L94,17.8c0,0,0,0,0,0c-0.1-0.1-0.2-0.2-0.3-0.2l0,0c0,0,0,0,0,0l-11.4-4.8c0,0,0,0,0,0l-5.7-2.3c0,0,0,0,0,0
					c-0.1,0-0.2-0.1-0.4-0.1c-0.1,0-0.3,0-0.4,0.1c0,0,0,0,0,0c-0.1,0-0.2,0.1-0.3,0.2c0,0,0,0-0.1,0.1c-0.1,0.1-0.1,0.1-0.1,0.2
					c0,0,0,0,0,0c0,0,0,0,0,0c0,0.1-0.1,0.2-0.1,0.3c0,0,0,0,0,0l0,0l0,0c0,0,0,0,0,0c0,0.1,0,0.2,0.1,0.3c0,0,0,0,0,0l7.3,16.9
					c0,0,0,0.1,0.1,0.1c0,0.1,0.1,0.1,0.1,0.2c0,0,0,0,0,0l72.5,72.5l12.3,12.3l3.9,4C177.1,123.4,180,120.5,182.7,117.8z
					 M79.7,17.3l2.3-2.4l10.2,4.3l0,3.7h-3.5c-0.5,0-1,0.4-1,1v3.6h-3.7L79.7,17.3z M88.8,29.3C88.8,29.3,88.8,29.3,88.8,29.3
					c0.6,0,1-0.4,1-1v-3.6h3.5c0,0,0,0,0,0c0,0,0,0,0,0c0.1,0,0.1,0,0.2,0c0.1,0,0.1,0,0.2,0c0.1,0,0.1-0.1,0.2-0.1
					c0.1,0,0.1-0.1,0.2-0.1c0,0,0.1-0.1,0.1-0.2c0,0,0.1-0.1,0.1-0.1c0.1-0.1,0.1-0.2,0.1-0.4c0,0,0,0,0,0l0-2.9L164.4,91l-8.5,8.5
					L85.8,29.3L88.8,29.3C88.7,29.3,88.8,29.3,88.8,29.3z M165.8,92.4l2.9,2.9l-8.5,8.5l-2.9-2.9L165.8,92.4z M169.5,96.1l1.6,1.6
					l-8.5,8.5l-1.6-1.6L169.5,96.1z M172,98.6l1.6,1.6l-8.5,8.5l-1.6-1.6L172,98.6z M174.4,101l2.3,2.3l-8.5,8.5l-2.3-2.3L174.4,101
					z"/>
			</g>
			<path id="XMLID_18_" class="st0" d="M72.9,96.7L97,120.8c0,0,31-22.4,79.3-70.7l-0.8-0.8l2-2l-0.1-0.1l0.8-0.8c0,0-6-16.3,6-28.4
				l5.2-5.2l-0.9-0.9l6.9-6.9L186,0.8l-4.3,4.3l-0.9-0.9l-5.2,5.2h0c-6,6-13.1,7.5-18.7,7.5c-5.6,0-9.7-1.5-9.7-1.5l-0.8,0.8
				l-0.1-0.1l-2,2l-0.8-0.8C95.3,65.6,72.9,96.7,72.9,96.7z M183.6,6.6l4.7,2.1l-1.4,1.4l-3.4-3.4L183.6,6.6z M186.5,3.7l4.7,2.1
				l-1.1,1.1l-4.7-2.1L186.5,3.7z M76.1,96.4c5.2-6.9,27-34.9,66.8-75l29.3,29.3c-40.1,39.8-68,61.6-75,66.8L76.1,96.4z M180.8,7.7
				l5.1,5.1l-3.4,3.4l-5.1-5.1L180.8,7.7z M156.9,19.4c7.1,0,13.5-2.3,18.7-6.6l5.3,5.3c-8.6,10.2-6.8,22.3-5.6,27.1l-26.9-26.9
				C150.3,18.8,153.4,19.4,156.9,19.4z"/>
		</g>
		<g id="XMLID_34_">
			<polygon id="XMLID_17_" class="st1" points="4.4,82 253.3,82 264,40.6 15,40.6 			"/>
			<g id="XMLID_76_">
				<path id="XMLID_77_" class="st2" d="M23.2,77.6H12l4.7-18.8l11.2,0L23.2,77.6z M49.2,53.2c0,0.8-0.2,2.1-0.7,4l-5.1,20.5H32.1
					l5.1-20.4c0.1-0.5,0.2-1.1,0.2-1.5c0-2.2-1.6-3.3-4.9-3.3c-3.3,0-7.3,0.2-12,0.6L18,53.3l1.8-7.4c4.8-0.6,10-0.9,15.7-0.9
					s9.6,0.8,11.5,2.5c1.2,1.1,1.9,2.3,2,3.7C49.1,51.7,49.2,52.4,49.2,53.2z"/>
				<path id="XMLID_80_" class="st2" d="M66.4,60.5l-7.9,6.8h-5l5.4-21.8l11.3,0L66.4,60.5z"/>
				<path id="XMLID_82_" class="st2" d="M99.1,44.9c1.6,0,3.1,0.2,4.5,0.7c3.3,1.2,4.9,3.5,4.9,7.1c0,2.1-0.3,4.3-1,6.7L103,77.6
					H84.6l1.8-7.4h6.9l2.7-10.7c0.6-2.4,0.8-4.1,0.5-5s-0.8-1.5-1.7-1.7c-0.5-0.1-1.2-0.2-2.1-0.2s-1.9,0.3-2.9,0.8
					s-1.8,1.1-2.3,1.7l-0.8,0.8L79,77.6H68.1l7.2-20.3c1.1-2.9,1.6-5.6,1.6-8.3c0-1.2-0.1-2.4-0.3-3.6H86c0.4,1,0.6,2.1,0.4,3.3h0.4
					C90.4,46.2,94.5,44.9,99.1,44.9z"/>
				<path id="XMLID_84_" class="st2" d="M122.1,77.6h-11.3l8-32.2l11.3,0.1L122.1,77.6z"/>
				<path id="XMLID_86_" class="st2" d="M147.5,45c4.3,0,7.5,0.7,9.5,2.2c2.5,1.8,3.8,4.2,3.7,7.4c0,1.6-0.2,3.3-0.7,4.9l-1,4.1
					c-1.3,5.4-3.8,9.2-7.4,11.6c-3,2-7.1,3-12.1,3c-5,0-8.9-0.2-11.6-0.7l1.9-7.5c2.9,0.3,6.5,0.4,10.6,0.4c2.1,0,3.7-0.6,4.9-1.8
					c1.2-1.2,2-2.9,2.5-5l1-4.1c0.3-1.2,0.5-2.1,0.5-2.7c0-1.4-0.3-2.4-0.9-3c-0.9-0.9-2.6-1.3-5-1.4c-2.4,0-5.1,0.1-7.9,0.3
					l-1.4,0.1l1.9-7.5C139.3,45.1,143.2,45,147.5,45z"/>
				<path id="XMLID_88_" class="st2" d="M177.2,60.5l-7.9,6.8h-5l5.4-21.8l11.3,0L177.2,60.5z"/>
				<path id="XMLID_90_" class="st2" d="M203.5,45c5.2,0,8.9,1.4,11.1,4.3c1.4,1.8,2,4.1,2,6.8c0,1.6-0.2,3.4-0.7,5.4
					c-1.3,5.2-3.8,9.3-7.5,12.2c-3.7,2.9-8.1,4.4-13.3,4.4s-8.9-1.4-11-4.3c-1.3-1.8-2-4-2-6.7c0-1.7,0.3-3.5,0.8-5.5
					c0.9-3.6,2.8-6.4,5.6-8.6l-3.1,0.2l1.9-7.6C192.9,45.2,198.3,45,203.5,45z M205.2,56.7c0-2.9-1.2-4.3-3.5-4.3l-2.3,0.1
					c-2.5,2.3-4.1,5.3-5,9c-0.5,1.9-0.7,3.5-0.7,4.8c0,2.8,1.2,4.2,3.6,4.2c3.4,0,5.7-2.7,7.1-8.1C204.9,59.9,205.2,58,205.2,56.7z"
					/>
				<path id="XMLID_93_" class="st2" d="M229.5,77.6h-11.2l4.7-18.8l11.2,0L229.5,77.6z M255.5,53.2c0,0.8-0.2,2.1-0.7,4l-5.1,20.5
					h-11.2l5.1-20.4c0.1-0.5,0.2-1.1,0.2-1.5c0-2.2-1.6-3.3-4.9-3.3s-7.3,0.2-12,0.6l-2.4,0.2l1.8-7.4c4.8-0.6,10-0.9,15.7-0.9
					c5.7,0,9.6,0.8,11.5,2.5c1.2,1.1,1.9,2.3,2,3.7C255.4,51.7,255.4,52.4,255.5,53.2z"/>
			</g>
			<g id="XMLID_56_">
				<path id="XMLID_57_" class="st2" d="M23.2,77.6H12l4.7-18.8l11.2,0L23.2,77.6z M49.2,53.2c0,0.8-0.2,2.1-0.7,4l-5.1,20.5H32.1
					l5.1-20.4c0.1-0.5,0.2-1.1,0.2-1.5c0-2.2-1.6-3.3-4.9-3.3c-3.3,0-7.3,0.2-12,0.6L18,53.3l1.8-7.4c4.8-0.6,10-0.9,15.7-0.9
					s9.6,0.8,11.5,2.5c1.2,1.1,1.9,2.3,2,3.7C49.1,51.7,49.2,52.4,49.2,53.2z"/>
				<path id="XMLID_60_" class="st2" d="M66.4,60.5l-7.9,6.8h-5l5.4-21.8l11.3,0L66.4,60.5z"/>
				<path id="XMLID_62_" class="st2" d="M99.1,44.9c1.6,0,3.1,0.2,4.5,0.7c3.3,1.2,4.9,3.5,4.9,7.1c0,2.1-0.3,4.3-1,6.7L103,77.6
					H84.6l1.8-7.4h6.9l2.7-10.7c0.6-2.4,0.8-4.1,0.5-5s-0.8-1.5-1.7-1.7c-0.5-0.1-1.2-0.2-2.1-0.2s-1.9,0.3-2.9,0.8
					s-1.8,1.1-2.3,1.7l-0.8,0.8L79,77.6H68.1l7.2-20.3c1.1-2.9,1.6-5.6,1.6-8.3c0-1.2-0.1-2.4-0.3-3.6H86c0.4,1,0.6,2.1,0.4,3.3h0.4
					C90.4,46.2,94.5,44.9,99.1,44.9z"/>
				<path id="XMLID_64_" class="st2" d="M122.1,77.6h-11.3l8-32.2l11.3,0.1L122.1,77.6z"/>
				<path id="XMLID_66_" class="st2" d="M147.5,45c4.3,0,7.5,0.7,9.5,2.2c2.5,1.8,3.8,4.2,3.7,7.4c0,1.6-0.2,3.3-0.7,4.9l-1,4.1
					c-1.3,5.4-3.8,9.2-7.4,11.6c-3,2-7.1,3-12.1,3c-5,0-8.9-0.2-11.6-0.7l1.9-7.5c2.9,0.3,6.5,0.4,10.6,0.4c2.1,0,3.7-0.6,4.9-1.8
					c1.2-1.2,2-2.9,2.5-5l1-4.1c0.3-1.2,0.5-2.1,0.5-2.7c0-1.4-0.3-2.4-0.9-3c-0.9-0.9-2.6-1.3-5-1.4c-2.4,0-5.1,0.1-7.9,0.3
					l-1.4,0.1l1.9-7.5C139.3,45.1,143.2,45,147.5,45z"/>
				<path id="XMLID_68_" class="st2" d="M177.2,60.5l-7.9,6.8h-5l5.4-21.8l11.3,0L177.2,60.5z"/>
				<path id="XMLID_70_" class="st2" d="M203.5,45c5.2,0,8.9,1.4,11.1,4.3c1.4,1.8,2,4.1,2,6.8c0,1.6-0.2,3.4-0.7,5.4
					c-1.3,5.2-3.8,9.3-7.5,12.2c-3.7,2.9-8.1,4.4-13.3,4.4s-8.9-1.4-11-4.3c-1.3-1.8-2-4-2-6.7c0-1.7,0.3-3.5,0.8-5.5
					c0.9-3.6,2.8-6.4,5.6-8.6l-3.1,0.2l1.9-7.6C192.9,45.2,198.3,45,203.5,45z M205.2,56.7c0-2.9-1.2-4.3-3.5-4.3l-2.3,0.1
					c-2.5,2.3-4.1,5.3-5,9c-0.5,1.9-0.7,3.5-0.7,4.8c0,2.8,1.2,4.2,3.6,4.2c3.4,0,5.7-2.7,7.1-8.1C204.9,59.9,205.2,58,205.2,56.7z"
					/>
				<path id="XMLID_73_" class="st2" d="M229.5,77.6h-11.2l4.7-18.8l11.2,0L229.5,77.6z M255.5,53.2c0,0.8-0.2,2.1-0.7,4l-5.1,20.5
					h-11.2l5.1-20.4c0.1-0.5,0.2-1.1,0.2-1.5c0-2.2-1.6-3.3-4.9-3.3s-7.3,0.2-12,0.6l-2.4,0.2l1.8-7.4c4.8-0.6,10-0.9,15.7-0.9
					c5.7,0,9.6,0.8,11.5,2.5c1.2,1.1,1.9,2.3,2,3.7C255.4,51.7,255.4,52.4,255.5,53.2z"/>
			</g>
			<g id="XMLID_15_">
				<path id="XMLID_37_" class="st2" d="M23.2,77.6H12l4.7-18.8l11.2,0L23.2,77.6z M49.2,53.2c0,0.8-0.2,2.1-0.7,4l-5.1,20.5H32.1
					l5.1-20.4c0.1-0.5,0.2-1.1,0.2-1.5c0-2.2-1.6-3.3-4.9-3.3c-3.3,0-7.3,0.2-12,0.6L18,53.3l1.8-7.4c4.8-0.6,10-0.9,15.7-0.9
					s9.6,0.8,11.5,2.5c1.2,1.1,1.9,2.3,2,3.7C49.1,51.7,49.2,52.4,49.2,53.2z"/>
				<path id="XMLID_40_" class="st2" d="M66.4,60.5l-7.9,6.8h-5l5.4-21.8l11.3,0L66.4,60.5z"/>
				<path id="XMLID_42_" class="st2" d="M99.1,44.9c1.6,0,3.1,0.2,4.5,0.7c3.3,1.2,4.9,3.5,4.9,7.1c0,2.1-0.3,4.3-1,6.7L103,77.6
					H84.6l1.8-7.4h6.9l2.7-10.7c0.6-2.4,0.8-4.1,0.5-5s-0.8-1.5-1.7-1.7c-0.5-0.1-1.2-0.2-2.1-0.2s-1.9,0.3-2.9,0.8
					s-1.8,1.1-2.3,1.7l-0.8,0.8L79,77.6H68.1l7.2-20.3c1.1-2.9,1.6-5.6,1.6-8.3c0-1.2-0.1-2.4-0.3-3.6H86c0.4,1,0.6,2.1,0.4,3.3h0.4
					C90.4,46.2,94.5,44.9,99.1,44.9z"/>
				<path id="XMLID_44_" class="st2" d="M122.1,77.6h-11.3l8-32.2l11.3,0.1L122.1,77.6z"/>
				<path id="XMLID_46_" class="st2" d="M147.5,45c4.3,0,7.5,0.7,9.5,2.2c2.5,1.8,3.8,4.2,3.7,7.4c0,1.6-0.2,3.3-0.7,4.9l-1,4.1
					c-1.3,5.4-3.8,9.2-7.4,11.6c-3,2-7.1,3-12.1,3c-5,0-8.9-0.2-11.6-0.7l1.9-7.5c2.9,0.3,6.5,0.4,10.6,0.4c2.1,0,3.7-0.6,4.9-1.8
					c1.2-1.2,2-2.9,2.5-5l1-4.1c0.3-1.2,0.5-2.1,0.5-2.7c0-1.4-0.3-2.4-0.9-3c-0.9-0.9-2.6-1.3-5-1.4c-2.4,0-5.1,0.1-7.9,0.3
					l-1.4,0.1l1.9-7.5C139.3,45.1,143.2,45,147.5,45z"/>
				<path id="XMLID_48_" class="st2" d="M177.2,60.5l-7.9,6.8h-5l5.4-21.8l11.3,0L177.2,60.5z"/>
				<path id="XMLID_50_" class="st2" d="M203.5,45c5.2,0,8.9,1.4,11.1,4.3c1.4,1.8,2,4.1,2,6.8c0,1.6-0.2,3.4-0.7,5.4
					c-1.3,5.2-3.8,9.3-7.5,12.2c-3.7,2.9-8.1,4.4-13.3,4.4s-8.9-1.4-11-4.3c-1.3-1.8-2-4-2-6.7c0-1.7,0.3-3.5,0.8-5.5
					c0.9-3.6,2.8-6.4,5.6-8.6l-3.1,0.2l1.9-7.6C192.9,45.2,198.3,45,203.5,45z M205.2,56.7c0-2.9-1.2-4.3-3.5-4.3l-2.3,0.1
					c-2.5,2.3-4.1,5.3-5,9c-0.5,1.9-0.7,3.5-0.7,4.8c0,2.8,1.2,4.2,3.6,4.2c3.4,0,5.7-2.7,7.1-8.1C204.9,59.9,205.2,58,205.2,56.7z"
					/>
				<path id="XMLID_53_" class="st2" d="M229.5,77.6h-11.2l4.7-18.8l11.2,0L229.5,77.6z M255.5,53.2c0,0.8-0.2,2.1-0.7,4l-5.1,20.5
					h-11.2l5.1-20.4c0.1-0.5,0.2-1.1,0.2-1.5c0-2.2-1.6-3.3-4.9-3.3s-7.3,0.2-12,0.6l-2.4,0.2l1.8-7.4c4.8-0.6,10-0.9,15.7-0.9
					c5.7,0,9.6,0.8,11.5,2.5c1.2,1.1,1.9,2.3,2,3.7C255.4,51.7,255.4,52.4,255.5,53.2z"/>
			</g>
		</g>
	</g>
</g>
<g id="Layer_2">
</g>
</svg>
