<svg width="98.99999999999999" height="98" xmlns="http://www.w3.org/2000/svg">

 <g>
  <title>background</title>
  <rect fill="none" id="canvas_background" height="100" width="101" y="-1" x="-1"/>
 </g>
 <g>
  <title>Layer 1</title>
  <g id="svg_1" display="none">
   <rect y="1.249878" fill="#a54040" id="svg_2" height="99" width="185" x="-191.062592"/>
   <rect x="0.937408" fill="#a54040" id="svg_3" height="30" width="100" y="-34.750122"/>
   <text x="0.937408" y="1.249878" id="svg_4" font-size="2.4" font-family="'Helvetica'" fill="#a54040" transform="matrix(1,0,0,1,66,-19.5) ">http://thenounproject.com</text>
   <text x="0.937408" y="1.249878" id="svg_5" font-size="6.1578" font-family="'Helvetica-Bold'" fill="#a54040" transform="matrix(1,0,0,1,7.166,-24.5) ">The Noun Project</text>
   <text x="0.937408" y="1.249878" id="svg_6" font-size="4" font-family="'Helvetica-Bold'" fill="#a54040" transform="matrix(1,0,0,1,8.2861,-19.7002) ">Icon Template</text>
   <text x="0.937408" y="1.249878" id="svg_7" font-size="6.1578" font-family="'Helvetica-Bold'" fill="#a54040" transform="matrix(1,0,0,1,-178.5,10.5) ">Reminders</text>
   <line id="svg_8" y2="-13.250122" x2="18.937408" y1="-13.250122" x1="8.937408" stroke-miterlimit="10" stroke="#FFFFFF" fill="#a54040"/>
   <line id="svg_9" y2="17.749878" x2="-161.062592" y1="17.749878" x1="-178.062592" stroke-miterlimit="10" stroke="#FFFFFF" fill="#a54040"/>
   <g id="svg_10" display="inline">
    <g id="svg_11">
     <g id="svg_12">
      <rect id="svg_13" height="8.642" width="8.721" fill="#a54040" y="32.567878" x="-169.864592"/>
      <path id="svg_14" d="m-163.517593,43.561878l4.747009,0l0,-4.702999l-4.747009,0l0,4.702999zm5.188995,0.437l-5.630005,0l0,-5.579002l5.630005,0l0,5.579002l0,0zm-6.954987,1.313l8.279007,0l0,-8.202999l-8.279007,0l0,8.202999l0,0zm8.720993,0.438l-9.162994,0l0,-9.078999l9.162994,0l0,9.078999l0,0z" fill="#a54040"/>
      <polygon id="svg_15" points="-165.21159368753433,45.382877349853516 -165.35459905862808,45.24087905883789 -157.07559210062027,37.0368766784668 -156.93359380960464,37.17887878417969 " fill="#a54040"/>
     </g>
    </g>
   </g>
   <rect id="svg_16" height="32.5" width="35" fill="#a54040" y="59.249878" x="-178.062592"/>
   <text x="0.937408" y="1.249878" id="svg_17" font-size="3" font-family="'Helvetica-Bold'" fill="#a54040" transform="matrix(1,0,0,1,-179,60.1572) ">Strokes</text>
   <text x="0.937408" y="1.249878" id="svg_18" font-size="2.4" font-family="'Helvetica'" fill="#a54040" transform="matrix(1,0,0,1,-179,65.1572) ">Try to keep strokes at 4px</text>
   <text x="0.937408" y="1.249878" id="svg_19" font-size="2.4" font-family="'Helvetica'" fill="#a54040" transform="matrix(1,0,0,1,-179,70.1572) ">Minimum stroke weight is 2px</text>
   <text x="0.937408" y="1.249878" id="svg_20" font-size="2.4" font-family="'Helvetica'" fill="#a54040" transform="matrix(1,0,0,1,-179,74.6572) ">For thicker strokes use even</text>
   <text x="0.937408" y="1.249878" id="svg_21" font-size="2.4" font-family="'Helvetica'" fill="#a54040" transform="matrix(1,0,0,1,-179,77.6572) ">numbers: 6px, 8px etc.</text>
   <text x="0.937408" y="1.249878" id="svg_22" font-size="2.4" font-family="'Helvetica-Bold'" fill="#a54040" transform="matrix(1,0,0,1,-179,82.1572) ">Remember to expand strokes</text>
   <text x="0.937408" y="1.249878" id="svg_23" font-size="2.4" font-family="'Helvetica-Bold'" fill="#a54040" transform="matrix(1,0,0,1,-179,85.1572) ">before saving as an SVG</text>
   <rect id="svg_24" height="32.5" width="35" fill="#a54040" y="59.249878" x="-135.562592"/>
   <text x="0.937408" y="1.249878" id="svg_25" font-size="3" font-family="'Helvetica-Bold'" fill="#a54040" transform="matrix(1,0,0,1,-136.5,60.1572) ">Size</text>
   <text x="0.937408" y="1.249878" id="svg_26" font-size="2.4" font-family="'Helvetica'" fill="#a54040" transform="matrix(1,0,0,1,-136.5,65.1572) ">Cannot be wider or taller than</text>
   <text x="0.937408" y="1.249878" id="svg_27" font-size="2.4" font-family="'Helvetica'" fill="#a54040" transform="matrix(1,0,0,1,-136.5,68.6572) ">100px (artboard size)</text>
   <text x="0.937408" y="1.249878" id="svg_28" font-size="2.4" font-family="'Helvetica'" fill="#a54040" transform="matrix(1,0,0,1,-136.5,73.6572) ">Scale your icon to fill as much of</text>
   <text x="0.937408" y="1.249878" id="svg_29" font-size="2.4" font-family="'Helvetica'" fill="#a54040" transform="matrix(1,0,0,1,-136.5,76.6572) ">the artboard as possible</text>
   <rect id="svg_30" height="32.5" width="35" fill="#a54040" y="59.249878" x="-93.062592"/>
   <text x="0.937408" y="1.249878" id="svg_31" font-size="3" font-family="'Helvetica-Bold'" fill="#a54040" transform="matrix(1,0,0,1,-94,60.1572) ">Ungroup</text>
   <text x="0.937408" y="1.249878" id="svg_32" font-size="2.4" font-family="'Helvetica'" fill="#a54040" transform="matrix(1,0,0,1,-94,65.1572) ">If your design has more than one</text>
   <text x="0.937408" y="1.249878" id="svg_33" font-size="2.4" font-family="'Helvetica'" fill="#a54040" transform="matrix(1,0,0,1,-94,68.1572) ">shape, make sure to ungroup</text>
   <rect id="svg_34" height="32.5" width="35" fill="#a54040" y="59.249878" x="-49.062592"/>
   <text x="0.937408" y="1.249878" id="svg_35" font-size="3" font-family="'Helvetica-Bold'" fill="#a54040" transform="matrix(1,0,0,1,-50,60.1572) ">Save as</text>
   <text x="0.937408" y="1.249878" id="svg_36" font-size="2.4" font-family="'Helvetica'" fill="#a54040" transform="matrix(1,0,0,1,-50,65.1572) ">Save as .SVG and make sure</text>
   <text x="0.937408" y="1.249878" id="svg_37" font-size="2.4" font-family="'Helvetica'" fill="#a54040" transform="matrix(1,0,0,1,-50,68.1572) ">“Use Artboards” is checked</text>
   <text x="0.930522" y="1.249878" id="svg_38" font-size="2.5731" font-family="'Helvetica'" fill="#a54040" transform="matrix(1.0074,0,0,1,-125.542,30.5938) ">100px</text>
   <text x="0.930522" y="1.249878" id="svg_39" font-size="5.1462" font-family="'Helvetica-Bold'" fill="#a54040" transform="matrix(1.0074,0,0,1,-41,39) ">.SVG</text>
   <rect id="svg_40" height="10.185" width="10.261" fill="#a54040" y="36.064878" x="-125.576592"/>
   <rect id="svg_41" height="2.337" width="0.522" fill="#a54040" y="33.015878" x="-125.539592"/>
   <rect id="svg_42" height="2.337" width="0.523" fill="#a54040" y="33.015878" x="-115.874592"/>
   <rect id="svg_43" height="0.572" width="11.233" fill="#a54040" y="33.586878" x="-126.062592"/>
   <g id="svg_44" display="inline">
    <rect id="svg_45" height="10.156" width="10.305" fill="#a54040" y="35.093878" x="-82.867592"/>
    <rect id="svg_46" height="3.261" width="3.308" fill="#a54040" y="29.956878" x="-75.871592"/>
   </g>
   <rect id="svg_47" height="30" width="30" stroke-miterlimit="10" stroke="#FFFFFF" fill="#a54040" y="23.749878" x="-177.562592"/>
   <rect id="svg_48" height="30" width="30" stroke-miterlimit="10" stroke="#FFFFFF" fill="#a54040" y="23.749878" x="-135.562592"/>
   <rect id="svg_49" height="30" width="30" stroke-miterlimit="10" stroke="#FFFFFF" fill="#a54040" y="23.749878" x="-92.562592"/>
   <rect id="svg_50" height="30" width="30" stroke-miterlimit="10" stroke="#FFFFFF" fill="#a54040" y="23.749878" x="-48.562592"/>
  </g>
  <g transform="rotate(180 49.24790954589844,49.160343170166016) " id="svg_51">
   <g id="svg_52">
    <g id="svg_53">
     <g id="svg_54">
      <path id="svg_55" d="m85.037407,88.275345c-6.603996,-0.868996 -14.050995,-1.226997 -21.868999,-1.606995c-6.856998,-0.338005 -14.062,-0.693001 -20.896999,-1.445999c1.917,-2.136002 2.936001,-5.152 2.952999,-8.153c0.02,-1.105003 -0.124001,-2.059006 -0.348,-2.893005c2.475002,-1.219002 4.117001,-3.712997 4.311001,-6.947998c0.125,-2.001999 -0.367001,-4.136002 -1.442001,-5.937c2.861,-1.271999 4.742001,-3.737999 5.114002,-7.049c0.467999,-4.153 -1.741001,-9.042 -6.209999,-10c-0.087002,-0.027 -0.189003,-0.043999 -0.276001,-0.073002c-4.414001,-7.257999 0.632999,-24.936998 9.374001,-32.147999c1.525997,-1.261 3.747997,-2.677999 5.709,-2.351c0.011997,0.002 0.038998,0.007 0.07,0.013c1.363998,0.254 2.470997,1.341 3.119999,2.155c-0.595001,1.56 -1.403,4.402999 -2.245998,9.435c-2.873001,17.169001 9.306995,33.732 27.535999,38.273001c-0.489998,3.199997 -1.746002,10.798996 -4.899002,28.728996m-38.831997,-33.983997c-0.515003,1.639 -1.742001,2.361 -3.877003,2.278c-9.954998,-0.374001 -28.322999,-6.071999 -30.594999,-8.868999c-1.606,-1.980999 0.286,-4.694 2.169001,-7.084c0.23,-0.288002 0.426,-0.555 0.598,-0.776001c3.224001,-4.333 8.007999,-8.417999 11.539,-7.827999c0.044001,0.007999 0.075001,0.012997 0.118,0.021c3.325001,0.660999 8.969999,2.285 12.142,3.221001c-0.127998,2.484997 0.064999,4.856998 0.597,7.023998c-3.236,-0.921001 -6.048,-1.835999 -7.088001,-2.322998c-0.698997,-0.706001 -1.766998,-1.106003 -2.872999,-1.003002c-1.778999,0.146 -3.011,1.533001 -2.741999,3.094002c0.192999,1.103001 0.623999,3.683998 19.071999,7.646c0.581001,0.320999 1.593002,2.500999 0.940002,4.598999m-5.376003,15.038998c-10.307999,-0.520996 -28.395998,-6.096996 -30.641998,-8.862999c-1.381001,-1.692997 -0.142,-3.940998 1.439,-6.067997c3.646,1.811996 8.542001,3.48 13.526999,4.796997c0.26,0.162003 0.541,0.303001 0.860001,0.381001c4.798,1.352001 9.118,2.389 14.661999,3.080002c1.392002,0.18 2.139,2.238998 2.024002,4.010002c-0.017002,0.268997 -0.220001,2.744995 -1.870003,2.662994m-3.246998,11.618004c-0.991001,1.584999 -2.02,1.597 -2.354,1.595001c-6.919001,0.028 -19.933001,-4.578003 -21.367001,-7.037003c-1.052,-1.772003 0.076,-4.354004 1.136001,-6.252998c3.065,1.126999 6.495999,2.145996 9.908,3.001999c0.027,0.019997 0.042,0.020996 0.067999,0.039001c1.324001,0.509995 8.949001,2.319 13.597,2.938995c0.310001,1.138 0.256001,3.715004 -0.987999,5.715004m60.029003,-25.566002l-0.140007,-0.167999l-3.518997,-0.588001c-16.371002,-2.737999 -27.642998,-17.217999 -25.121002,-32.278c1.198006,-7.166999 2.217003,-9.085999 2.217003,-9.085999l0.856003,-1.241l-0.720001,-1.388c-0.288002,-0.545 -2.958,-5.38 -8.514,-6.467c-3.773003,-0.775 -7.676003,0.479 -11.521,3.65c-5.691002,4.716 -10.326,13.333999 -12.103001,21.774999c-3.389,-0.997 -8.461,-2.421 -11.742001,-3.073999c-0.118,-0.02 -0.236,-0.039999 -0.354,-0.059c-8.375,-1.402 -15.346001,6.614998 -17.967001,10.161999c-0.138,0.186001 -0.308,0.393002 -0.5,0.634003c-1.917999,2.421997 -6.362,8.079998 -2.059999,13.489998c-2.07,2.685001 -5.539,7.864002 -1.485,12.854c0.84,1.040997 2.302,2.069004 4.133,3.056004c-1.596,2.853996 -3.366,7.183998 -0.988,11.239998c0.272,0.447998 0.65,0.903999 1.076,1.343002c0.122,0.176994 0.262,0.344994 0.431,0.500999c5.959,5.531998 14.688,8.440994 24.639999,10.106995c9.023003,1.510002 19.034,1.999001 28.882999,2.469002c8.884998,0.43 17.274998,0.841003 24.194004,1.998001l3.684998,0.616997l6.619003,-39.546997z" fill="#ffffff"/>
     </g>
    </g>
   </g>
  </g>
 </g>
</svg>
