<svg xmlns="http://www.w3.org/2000/svg" xmlns:xlink="http://www.w3.org/1999/xlink" version="1.1" viewBox="0 17 95 65" enable-background="new 0 0 100 100" xml:space="preserve">
    <path fill="#ffffff" d="M24,20.829H6c-0.552,0-1,0.448-1,1v58c0,0.553,0.448,1,1,1h18c0.552,0,1-0.447,1-1v-58  C25,21.276,24.552,20.829,24,20.829z M15,74.828c-2.209,0-4-1.791-4-4s1.791-4,4-4s4,1.791,4,4S17.209,74.828,15,74.828z M22,56.828  c0,0.553-0.448,1-1,1H9c-0.552,0-1-0.447-1-1v-32c0-0.552,0.448-1,1-1h12c0.552,0,1,0.448,1,1V56.828z"/>
    <rect fill="#ffffff" x="10" y="30.829" width="10" height="1"/>
    <rect fill="#ffffff" x="10" y="33.829" width="10" height="1"/>
    <rect fill="#ffffff" x="10" y="36.828" width="10" height="1"/>
    <path fill="#ffffff" d="M45,20.829H27c-0.552,0-1,0.448-1,1v58c0,0.553,0.448,1,1,1h18c0.552,0,1-0.447,1-1v-58  C46,21.276,45.552,20.829,45,20.829z M36,74.828c-2.209,0-4-1.791-4-4s1.791-4,4-4s4,1.791,4,4S38.209,74.828,36,74.828z M43,56.828  c0,0.553-0.448,1-1,1H30c-0.552,0-1-0.447-1-1v-32c0-0.552,0.448-1,1-1h12c0.552,0,1,0.448,1,1V56.828z"/>
    <rect fill="#ffffff" x="31" y="30.829" width="10" height="1"/>
    <rect fill="#ffffff" x="31" y="33.829" width="10" height="1"/>
    <rect fill="#ffffff" x="31" y="36.828" width="10" height="1"/>
    <path fill="#ffffff" d="M66,20.829H48c-0.552,0-1,0.448-1,1v58c0,0.553,0.448,1,1,1h18c0.553,0,1-0.447,1-1v-58  C67,21.276,66.553,20.829,66,20.829z M57,74.828c-2.209,0-4-1.791-4-4s1.791-4,4-4s4,1.791,4,4S59.209,74.828,57,74.828z M64,56.828  c0,0.553-0.447,1-1,1H51c-0.553,0-1-0.447-1-1v-32c0-0.552,0.447-1,1-1h12c0.553,0,1,0.448,1,1V56.828z"/>
    <rect fill="#ffffff" x="52" y="30.829" width="10" height="1"/>
    <rect fill="#ffffff" x="52" y="33.829" width="10" height="1"/>
    <rect fill="#ffffff" x="52" y="36.828" width="10" height="1"/>
    <path fill="#ffffff" d="M85.725,19.008l-17.853,2.305c-0.548,0.071-0.935,0.573-0.863,1.121l7.43,57.521  c0.071,0.549,0.572,0.936,1.12,0.865l17.852-2.307c0.549-0.07,0.934-0.572,0.863-1.121l-7.43-57.521  C86.773,19.324,86.272,18.938,85.725,19.008z M83.717,73.715c-2.191,0.283-4.197-1.262-4.48-3.453  c-0.282-2.191,1.264-4.197,3.454-4.48s4.197,1.264,4.48,3.455S85.906,73.432,83.717,73.715z M88.354,54.967  c0.07,0.549-0.316,1.049-0.864,1.119l-11.901,1.537c-0.549,0.072-1.049-0.314-1.12-0.863l-4.1-31.734  c-0.07-0.548,0.314-1.05,0.863-1.121l11.901-1.537c0.548-0.071,1.05,0.315,1.121,0.863L88.354,54.967z"/>
    <rect fill="#ffffff" x="73.143" y="30.075" transform="matrix(0.9918 -0.1281 0.1281 0.9918 -3.2732 10.2637)" width="10" height="1"/>
    <rect fill="#ffffff" x="73.528" y="33.05" transform="matrix(0.9918 -0.1281 0.1281 0.9918 -3.6512 10.3375)" width="10" height="0.999"/>
    <rect fill="#ffffff" x="73.913" y="36.024" transform="matrix(0.9918 -0.1281 0.1281 0.9918 -4.0295 10.4123)" width="9.999" height="1.001"/>
</svg>